<svg width="24" height="24" viewBox="0 0 24 24" fill="none" xmlns="http://www.w3.org/2000/svg">
<g clip-path="url(#clip0_302_536)">
<path d="M12 3.92955e-08C5.383 6.09636e-08 1.76273e-08 5.383 3.92955e-08 12C6.09636e-08 18.617 5.383 24 12 24C14.572 24 17.024 23.198 19.091 21.682L18.499 20.875C16.605 22.265 14.357 23 11.999 23C5.935 23 1 18.065 1 12C1 5.935 5.935 1 12 1C18.065 1 23 5.935 23 12L23 14.5C23 15.878 21.878 17 20.5 17C19.122 17 18 15.878 18 14.5L18 12C18 8.691 15.309 6 12 6C8.691 6 6 8.691 6 12C6 15.309 8.691 18 12 18C14.131 18 16.006 16.883 17.071 15.204C17.398 16.798 18.811 18 20.5 18C22.43 18 24 16.43 24 14.5L24 12C24 5.383 18.617 1.76273e-08 12 3.92955e-08ZM12 17C9.243 17 7 14.757 7 12C7 9.243 9.243 7 12 7C14.757 7 17 9.243 17 12C17 14.757 14.757 17 12 17Z" fill="#EBCB47"/>
</g>
<defs>
<clipPath id="clip0_302_536">
<rect width="24" height="24" fill="white"/>
</clipPath>
</defs>
</svg>
