<svg width="24" height="24" viewBox="0 0 24 24" fill="none" xmlns="http://www.w3.org/2000/svg">
<g clip-path="url(#clip0_68_1231)">
<path d="M5.5 10C2.416 10 0 11.318 0 13V21C0 22.682 2.416 24 5.5 24C8.584 24 11 22.682 11 21V13C11 11.318 8.584 10 5.5 10ZM10 17C10 17.946 8.152 19 5.5 19C2.848 19 1 17.946 1 17V14.746C1.987 15.51 3.62 16 5.5 16C7.38 16 9.013 15.51 10 14.746V17ZM5.5 11C8.152 11 10 12.054 10 13C10 13.946 8.152 15 5.5 15C2.848 15 1 13.946 1 13C1 12.054 2.848 11 5.5 11ZM5.5 23C2.848 23 1 21.946 1 21V18.746C1.987 19.51 3.62 20 5.5 20C7.38 20 9.013 19.51 10 18.746V21C10 21.946 8.152 23 5.5 23ZM20 5.5C20 4.673 19.327 4 18.5 4H9.5C8.673 4 8 4.673 8 5.5V7.5C8 8.327 8.673 9 9.5 9H18.5C19.327 9 20 8.327 20 7.5V5.5ZM19 7.5C19 7.776 18.775 8 18.5 8H9.5C9.225 8 9 7.776 9 7.5V5.5C9 5.224 9.225 5 9.5 5H18.5C18.775 5 19 5.224 19 5.5V7.5ZM20 12.5C20 12.776 19.776 13 19.5 13C19.224 13 19 12.776 19 12.5V11.5C19 11.224 19.224 11 19.5 11C19.776 11 20 11.224 20 11.5V12.5ZM16 12.5V11.5C16 11.224 16.224 11 16.5 11C16.776 11 17 11.224 17 11.5V12.5C17 12.776 16.776 13 16.5 13C16.224 13 16 12.776 16 12.5ZM13 12.5V11.5C13 11.224 13.224 11 13.5 11C13.776 11 14 11.224 14 11.5V12.5C14 12.776 13.776 13 13.5 13C13.224 13 13 12.776 13 12.5ZM13 15.5C13 15.224 13.224 15 13.5 15C13.776 15 14 15.224 14 15.5V16.5C14 16.776 13.776 17 13.5 17C13.224 17 13 16.776 13 16.5V15.5ZM16 15.5C16 15.224 16.224 15 16.5 15C16.776 15 17 15.224 17 15.5V16.5C17 16.776 16.776 17 16.5 17C16.224 17 16 16.776 16 16.5V15.5ZM20 16.5C20 16.776 19.776 17 19.5 17C19.224 17 19 16.776 19 16.5V15.5C19 15.224 19.224 15 19.5 15C19.776 15 20 15.224 20 15.5V16.5ZM13 19.5C13 19.224 13.224 19 13.5 19H19.5C19.776 19 20 19.224 20 19.5C20 19.776 19.776 20 19.5 20H13.5C13.224 20 13 19.776 13 19.5ZM24 4.5V19.5C24 21.981 21.981 24 19.5 24H12.5C12.224 24 12 23.776 12 23.5C12 23.224 12.224 23 12.5 23H19.5C21.43 23 23 21.43 23 19.5V4.5C23 2.57 21.43 1 19.5 1H8.5C6.57 1 5 2.57 5 4.5V7.5C5 7.776 4.776 8 4.5 8C4.224 8 4 7.776 4 7.5V4.5C4 2.019 6.019 0 8.5 0H19.5C21.981 0 24 2.019 24 4.5Z" fill="#EBCB47"/>
</g>
<defs>
<clipPath id="clip0_68_1231">
<rect width="24" height="24" fill="white"/>
</clipPath>
</defs>
</svg>
