<svg width="16" height="16" viewBox="0 0 16 16" fill="none" xmlns="http://www.w3.org/2000/svg">
<path d="M15.9027 15.4307L11.6033 11.1313C12.6747 9.948 13.334 8.38467 13.334 6.66667C13.3333 2.99067 10.3427 0 6.66667 0C2.99067 0 0 2.99067 0 6.66667C0 10.3427 2.99067 13.3333 6.66667 13.3333C8.38467 13.3333 9.948 12.6747 11.1313 11.6027L15.4307 15.902C15.496 15.9673 15.5813 15.9993 15.6667 15.9993C15.752 15.9993 15.8373 15.9667 15.9027 15.902C16.0327 15.772 16.0327 15.5607 15.9027 15.4307ZM0.666667 6.66667C0.666667 3.35867 3.35867 0.666667 6.66667 0.666667C9.97467 0.666667 12.6667 3.35867 12.6667 6.66667C12.6667 9.97467 9.97533 12.6667 6.66667 12.6667C3.358 12.6667 0.666667 9.97467 0.666667 6.66667Z" fill="black"/>
</svg>
