<svg width="24" height="24" viewBox="0 0 24 24" fill="none" xmlns="http://www.w3.org/2000/svg">
<g clip-path="url(#clip0_68_1238)">
<path d="M11 23.5C11 23.776 10.776 24 10.5 24H4.5C2.57 24 1 22.43 1 20.5V10.942C0.383 10.311 0 9.45 0 8.5C0 8.459 2.015 0.379 2.015 0.379C2.071 0.156 2.27 0 2.5 0H21.5C21.729 0 21.929 0.156 21.985 0.379C21.985 0.379 24 8.459 24 8.5C24 9.362 23.684 10.191 23.108 10.833C22.923 11.039 22.608 11.057 22.402 10.872C22.196 10.688 22.179 10.372 22.363 10.166C22.76 9.722 22.985 9.153 22.999 8.558L21.109 0.999H17V4.499C17 4.775 16.776 4.999 16.5 4.999C16.224 4.999 16 4.775 16 4.499V1H8V4.5C8 4.776 7.776 5 7.5 5C7.224 5 7 4.776 7 4.5V1H2.891L1.001 8.559C1.033 9.911 2.142 11 3.501 11H4.501C5.879 11 7.001 9.878 7.001 8.5C7.001 8.224 7.225 8 7.501 8C7.777 8 8.001 8.224 8.001 8.5C8.001 9.878 9.123 11 10.501 11H11.501C11.777 11 12.001 11.224 12.001 11.5C12.001 11.776 11.777 12 11.501 12H10.501C9.221 12 8.111 11.302 7.501 10.274C6.891 11.302 5.781 12 4.501 12H3.501C2.962 12 2.457 11.867 2.001 11.649V20.5C2.001 21.879 3.123 23 4.501 23H10.501C10.777 23 11.001 23.224 11.001 23.5H11ZM24 17.5C24 21.084 21.084 24 17.5 24C13.916 24 11 21.084 11 17.5C11 13.916 13.916 11 17.5 11C21.084 11 24 13.916 24 17.5ZM23 17.5C23 14.468 20.533 12 17.5 12C14.467 12 12 14.468 12 17.5C12 20.532 14.467 23 17.5 23C20.533 23 23 20.532 23 17.5ZM20.143 16.131L17.437 18.749C17.1 19.079 16.551 19.083 16.214 18.753L14.851 17.408C14.655 17.214 14.338 17.217 14.144 17.412C13.95 17.609 13.952 17.926 14.149 18.119L15.513 19.466C15.875 19.82 16.35 19.997 16.825 19.997C17.3 19.997 17.776 19.819 18.136 19.464L20.839 16.85C21.037 16.658 21.043 16.341 20.851 16.143C20.66 15.945 20.342 15.94 20.143 16.131Z" fill="#EBCB47"/>
</g>
<defs>
<clipPath id="clip0_68_1238">
<rect width="24" height="24" fill="white"/>
</clipPath>
</defs>
</svg>
