<svg width="24" height="24" viewBox="0 0 24 24" fill="none" xmlns="http://www.w3.org/2000/svg">
<g clip-path="url(#clip0_289_105)">
<path d="M11.98 23.986L11.354 23.673C9.16 22.576 2 18.484 2 11.873L2 5.13498C2 4.05498 2.688 3.10098 3.713 2.76198L12 0.0139771L20.287 2.76198C21.311 3.10198 22 4.05598 22 5.13498L22 11.873C22 19.372 14.828 22.841 12.63 23.725L11.98 23.986ZM12 1.06798L4.028 3.71098C3.413 3.91498 3 4.48698 3 5.13498L3 11.873C3 17.911 9.736 21.747 11.801 22.779L12.025 22.891L12.257 22.798C14.308 21.973 21 18.746 21 11.874L21 5.13398C21 4.48698 20.587 3.91398 19.973 3.70998L12 1.06798Z" fill="#EBCB47"/>
<path d="M10.5009 15C10.1169 15 9.73188 14.854 9.43888 14.561L6.15088 11.359L6.84788 10.642L10.1409 13.849C10.3419 14.049 10.6589 14.048 10.8529 13.854L17.1479 7.64502L17.8509 8.35702L11.5579 14.564C11.2669 14.855 10.8839 15.001 10.5009 15.001L10.5009 15Z" fill="#EBCB47"/>
</g>
<defs>
<clipPath id="clip0_289_105">
<rect width="24" height="24" fill="white"/>
</clipPath>
</defs>
</svg>
