<svg width="18" height="18" viewBox="0 0 18 18" fill="none" xmlns="http://www.w3.org/2000/svg">
<g clip-path="url(#clip0_69_1784)">
<path d="M8.985 17.9895L8.5155 17.7547C6.87 16.932 1.5 13.863 1.5 8.90475L1.5 3.85125C1.5 3.04125 2.016 2.32575 2.78475 2.0715L9 0.0104981L15.2152 2.0715C15.9832 2.3265 16.5 3.042 16.5 3.85125L16.5 8.90475C16.5 14.529 11.121 17.1307 9.4725 17.7937L8.985 17.9895ZM9 0.800998L3.021 2.78325C2.55975 2.93625 2.25 3.36525 2.25 3.85125L2.25 8.90475C2.25 13.4332 7.302 16.3102 8.85075 17.0842L9.01875 17.1682L9.19275 17.0985C10.731 16.4797 15.75 14.0595 15.75 8.9055L15.75 3.8505C15.75 3.36525 15.4402 2.9355 14.9797 2.7825L9 0.800998Z" fill="#EBCB47"/>
<path d="M7.87578 11.25C7.58778 11.25 7.29903 11.1405 7.07928 10.9208L4.61328 8.51926L5.13603 7.98151L7.60578 10.3868C7.75653 10.5368 7.99428 10.536 8.13978 10.3905L12.861 5.73376L13.3883 6.26776L8.66853 10.923C8.45028 11.1413 8.16303 11.2508 7.87578 11.2508L7.87578 11.25Z" fill="#EBCB47"/>
</g>
<defs>
<clipPath id="clip0_69_1784">
<rect width="18" height="18" fill="white"/>
</clipPath>
</defs>
</svg>
