<svg width="24" height="24" viewBox="0 0 24 24" fill="none" xmlns="http://www.w3.org/2000/svg">
<g clip-path="url(#clip0_68_1245)">
<path d="M13.146 5.354C12.951 5.159 12.951 4.842 13.146 4.647L15.646 2.147C15.841 1.952 16.158 1.952 16.353 2.147C16.548 2.342 16.548 2.659 16.353 2.854L13.853 5.354C13.755 5.452 13.627 5.5 13.499 5.5C13.371 5.5 13.244 5.451 13.146 5.354ZM5.14598 5.354C5.24398 5.452 5.37198 5.5 5.49998 5.5C5.62798 5.5 5.75598 5.451 5.85398 5.354C6.04898 5.159 6.04898 4.842 5.85398 4.647L3.35398 2.147C3.15898 1.952 2.84198 1.952 2.64698 2.147C2.45198 2.342 2.45198 2.659 2.64698 2.854L5.14598 5.354ZM9.49998 5C9.77598 5 9.99998 4.776 9.99998 4.5V0.5C9.99998 0.224 9.77598 0 9.49998 0C9.22398 0 8.99998 0.224 8.99998 0.5V4.5C8.99998 4.776 9.22398 5 9.49998 5ZM21.225 8.254C22.108 7.372 22.253 5.985 21.564 5.028C21.138 4.437 20.483 4.065 19.765 4.007C19.043 3.95 18.343 4.208 17.832 4.719L9.14398 13.546L8.89498 11.362C8.87098 10.649 8.53798 9.983 7.98098 9.536C7.42398 9.089 6.69698 8.91 5.98898 9.04C4.83698 9.255 3.99998 10.314 3.99998 11.558V19.342C3.99998 20.263 3.62598 21.165 2.97498 21.817L1.64698 23.146C1.45198 23.341 1.45198 23.658 1.64698 23.853C1.84198 24.048 2.15898 24.048 2.35398 23.853L3.68198 22.524C4.51998 21.686 4.99998 20.526 4.99998 19.342V11.558C4.99998 10.808 5.50398 10.148 6.17298 10.024C6.59898 9.945 7.02198 10.047 7.35598 10.316C7.68498 10.581 7.88198 10.974 7.89898 11.436L8.26998 14.7C8.29198 14.891 8.42198 15.053 8.60398 15.116C8.78698 15.178 8.98798 15.131 9.12398 14.994L18.543 5.424C18.845 5.123 19.266 4.966 19.685 5.005C20.117 5.04 20.496 5.256 20.754 5.614C21.159 6.176 21.058 7.008 20.513 7.553L16.295 11.905C15.804 12.412 15.731 13.179 16.116 13.769L19.39 18.783C20.391 20.247 20.292 22.001 19.147 23.147C18.952 23.342 18.952 23.659 19.147 23.854C19.245 23.952 19.373 24 19.501 24C19.629 24 19.757 23.951 19.855 23.854C21.329 22.381 21.477 20.063 20.223 18.227L16.953 13.222C16.825 13.026 16.849 12.77 17.014 12.601L21.226 8.255L21.225 8.254Z" fill="#EBCB47"/>
</g>
<defs>
<clipPath id="clip0_68_1245">
<rect width="24" height="24" fill="white"/>
</clipPath>
</defs>
</svg>
