<svg width="14" height="16" viewBox="0 0 14 16" fill="none" xmlns="http://www.w3.org/2000/svg">
<path d="M13.952 6.57733C12.526 6.57733 11.204 6.12133 10.1253 5.34667V10.9367C10.1253 13.7287 7.854 15.9993 5.06267 15.9993C3.984 15.9993 2.98333 15.6593 2.16133 15.082C0.856 14.1653 0 12.6493 0 10.9367C0 8.14467 2.27133 5.87333 5.06333 5.87333C5.29533 5.87333 5.522 5.89267 5.74533 5.92267V6.574V8.73067C5.52933 8.66333 5.30133 8.624 5.06333 8.624C3.78867 8.624 2.75133 9.66133 2.75133 10.9367C2.75133 11.8247 3.25533 12.596 3.99133 12.9833C4.312 13.152 4.67667 13.2487 5.064 13.2487C6.30933 13.2487 7.32533 12.258 7.372 11.0233L7.374 0H10.1247C10.1247 0.238667 10.148 0.471333 10.1893 0.698C10.3833 1.746 11.0053 2.64533 11.8673 3.20733C12.4673 3.59867 13.1833 3.82733 13.9513 3.82733L13.952 6.57733Z" fill="#FBE68E"/>
</svg>
