<svg width="16" height="12" viewBox="0 0 16 12" fill="none" xmlns="http://www.w3.org/2000/svg">
<path d="M15.6653 1.76C15.4813 1.06733 14.9393 0.521333 14.2507 0.336C13.0033 1.19209e-07 8 0 8 0C8 0 2.99667 1.19209e-07 1.74867 0.336C1.06067 0.521333 0.518667 1.06667 0.334667 1.76C0 3.016 0 5.636 0 5.636C0 5.636 0 8.256 0.334667 9.512C0.518667 10.2047 1.06067 10.7507 1.74933 10.936C2.99667 11.272 8 11.272 8 11.272C8 11.272 13.0033 11.272 14.2513 10.936C14.9393 10.7507 15.4813 10.2053 15.666 9.512C16 8.256 16 5.636 16 5.636C16 5.636 16 3.016 15.6653 1.76ZM6.364 8.01533V3.25667L10.5453 5.636L6.364 8.01533Z" fill="#FBE68E"/>
</svg>
